<svg xmlns="http://www.w3.org/2000/svg" width="68.465" height="51.55" viewBox="0 0 68.465 51.55">
  <defs>
    <style>
      .cls-1 {
        fill: #231815;
      }
    </style>
  </defs>
  <g id="组_204" data-name="组 204" transform="translate(-3084.771 -2630.855)">
    <g id="共同成长课" transform="translate(3084.771 2630.855)">
      <g id="组_200" data-name="组 200">
        <path id="路径_94" data-name="路径 94" class="cls-1" d="M3088.27,2682.4l-.222-.021c-3.024-.28-3.276-1.9-3.276-3.4l0-41.412c.469-6.312,15.33-6.7,18.3-6.719,2.372.039,12.342.413,15.974,3.9,3.894-3.621,14.409-3.89,16.859-3.9,2.915.049,17.3.6,17.3,6.822v41.309c0,.115.005.228.009.336a2.786,2.786,0,0,1-.629,2.208,3.767,3.767,0,0,1-2.784.86h-.158l-.154-.035a70.166,70.166,0,0,0-28.179,0l-.154.036h-4.344l-.154-.035a70.167,70.167,0,0,0-28.18,0Zm28.864-2.8h3.721a73.065,73.065,0,0,1,29.1,0,4.37,4.37,0,0,0,.494-.034l-.006-.137c-.006-.146-.011-.3-.011-.45v-41.309c0-2.479-8.445-3.94-14.54-4.042-6.361.034-15.319,1.493-15.515,4.145l-2.777-.1c0-2.476-8.444-3.938-14.541-4.042-6.326.034-15.224,1.478-15.51,4.1v41.248c0,.16,0,.363.01.5a2.837,2.837,0,0,0,.535.109,73.089,73.089,0,0,1,29.036.016Zm25.878-19.052-6.923-5.422-6.924,5.421v-20.546a2.472,2.472,0,0,1,2.469-2.469h8.908a2.472,2.472,0,0,1,2.469,2.469Zm-11.066-20.235v14.526l4.143-3.245,4.142,3.244v-14.526Z" transform="translate(-3084.771 -2630.855)"/>
      </g>
      <g id="组_201" data-name="组 201" transform="translate(32.842 4.41)">
        <rect id="矩形_100" data-name="矩形 100" class="cls-1" width="2.781" height="45.735"/>
      </g>
    </g>
    <g id="组_202" data-name="组 202" transform="translate(3092.292 2661.363)">
      <path id="路径_95" data-name="路径 95" d="M3111.14,2703.781h-8.97a1.411,1.411,0,0,1,0-2.781h8.97a1.411,1.411,0,0,1,0,2.781Z" transform="translate(-3101 -2701)"/>
    </g>
    <g id="组_203" data-name="组 203" transform="translate(3092.292 2669.852)">
      <path id="路径_96" data-name="路径 96" d="M3116.8,2717.781h-14.55a1.4,1.4,0,0,1,0-2.781h14.55a1.4,1.4,0,0,1,0,2.781Z" transform="translate(-3101 -2717)"/>
    </g>
  </g>
</svg>
