<svg xmlns="http://www.w3.org/2000/svg" width="60.04" height="53.25" viewBox="0 0 60.04 53.25">
  <defs>
    <style>
      .cls-1 {
        fill: #231815;
      }
    </style>
  </defs>
  <g id="组_206" data-name="组 206" transform="translate(-2551.771 -2545.711)">
    <path id="路径_99" data-name="路径 99" class="cls-1" d="M2600.562,2587.291a4.128,4.128,0,0,0,2.956-1.235c5.414-5.474,14.5-15.728,14.5-22.892a17.454,17.454,0,0,0-34.907,0c0,7.164,9.083,17.418,14.5,22.892A4.131,4.131,0,0,0,2600.562,2587.291Zm0-39.142a15.031,15.031,0,0,1,15.015,15.015c0,4.528-5.156,12.445-13.792,21.177a1.717,1.717,0,0,1-2.446,0c-8.636-8.733-13.792-16.649-13.792-21.177A15.032,15.032,0,0,1,2600.562,2548.149Z" transform="translate(-18.601 0)"/>
    <path id="路径_100" data-name="路径 100" class="cls-1" d="M2622.272,2574.889a8.213,8.213,0,1,0-8.212,8.212A8.222,8.222,0,0,0,2622.272,2574.889Zm-13.987,0a5.774,5.774,0,1,1,5.775,5.774A5.781,5.781,0,0,1,2608.285,2574.889Z" transform="translate(-32.099 -12.445)"/>
    <path id="路径_101" data-name="路径 101" class="cls-1" d="M2610.027,2572.741a4.411,4.411,0,0,0-3.923-.71l-4.389,1.283a1.219,1.219,0,0,0,.684,2.341l4.389-1.284a2.018,2.018,0,0,1,2.584,1.937v29.265a2.016,2.016,0,0,1-1.518,1.955l-17.377,4.448a2.036,2.036,0,0,1-1.019,0l-18.115-4.813a4.434,4.434,0,0,0-2.567.084l-11.9,4.01a2.018,2.018,0,0,1-2.662-1.912v-28.859a2.025,2.025,0,0,1,1.609-1.976l6.165-1.274a1.219,1.219,0,0,0-.493-2.388l-6.165,1.274a4.472,4.472,0,0,0-3.554,4.364v28.859a4.456,4.456,0,0,0,5.879,4.223l11.9-4.01a2.021,2.021,0,0,1,1.162-.038l18.115,4.814a4.476,4.476,0,0,0,2.25.01l17.378-4.448a4.454,4.454,0,0,0,3.351-4.317v-29.265A4.42,4.42,0,0,0,2610.027,2572.741Z" transform="translate(0 -15.515)"/>
  </g>
</svg>
