<svg xmlns="http://www.w3.org/2000/svg" width="46.083" height="66.18" viewBox="0 0 46.083 66.18">
  <defs>
    <style>
      .cls-1 {
        fill: #231815;
      }
    </style>
  </defs>
  <path id="路径_98" data-name="路径 98" class="cls-1" d="M3022.838,2137.392a20.65,20.65,0,0,1,6.357,40.3l-1.657.535v7.208h3.09a2.774,2.774,0,1,1,0,5.548h-3.09v3.107a4.7,4.7,0,1,1-9.4,0v-15.863l-1.656-.535a20.65,20.65,0,0,1,6.357-40.3m0,28.634a7.985,7.985,0,1,0-7.985-7.985,7.994,7.994,0,0,0,7.985,7.985m0-31.026a23.042,23.042,0,0,0-7.093,44.965v14.122a7.093,7.093,0,0,0,14.186,0v-.715h.7a5.181,5.181,0,0,0,5.166-5.166h0a5.181,5.181,0,0,0-5.166-5.166h-.7v-3.075a23.042,23.042,0,0,0-7.093-44.965Zm0,28.634a5.593,5.593,0,1,1,5.593-5.593,5.593,5.593,0,0,1-5.593,5.593Z" transform="translate(-2999.797 -2135)"/>
</svg>
