<svg xmlns="http://www.w3.org/2000/svg" width="53.148" height="53.149" viewBox="0 0 53.148 53.149">
  <defs>
    <style>
      .cls-1 {
        fill: #231815;
      }
    </style>
  </defs>
  <g id="专业分析" transform="translate(-2718.771 -2214.119)">
    <path id="路径_85" data-name="路径 85" class="cls-1" d="M2733.988,2216.369a2.2,2.2,0,0,1,2.2,2.2v14.388a2.2,2.2,0,0,1-2.2,2.2h-10.771a2.2,2.2,0,0,1-2.2-2.2v-14.388a2.2,2.2,0,0,1,2.2-2.2h10.771m0-2.25h-10.771a4.447,4.447,0,0,0-4.447,4.447v14.388a4.447,4.447,0,0,0,4.447,4.447h10.771a4.447,4.447,0,0,0,4.447-4.447v-14.388a4.447,4.447,0,0,0-4.447-4.447Z"/>
    <path id="路径_86" data-name="路径 86" class="cls-1" d="M2823.281,2296.016a2.2,2.2,0,0,1,2.2,2.2V2312.6a2.2,2.2,0,0,1-2.2,2.2h-10.771a2.2,2.2,0,0,1-2.2-2.2v-14.388a2.2,2.2,0,0,1,2.2-2.2h10.771m0-2.25h-10.771a4.447,4.447,0,0,0-4.447,4.447V2312.6a4.447,4.447,0,0,0,4.447,4.447h10.771a4.447,4.447,0,0,0,4.447-4.447v-14.388a4.447,4.447,0,0,0-4.447-4.447Z" transform="translate(-55.809 -49.78)"/>
    <path id="路径_87" data-name="路径 87" class="cls-1" d="M2808.885,2216.369a2.2,2.2,0,0,1,2.2,2.2v14.388a2.2,2.2,0,0,1-2.2,2.2h-19.408a2.2,2.2,0,0,1-2.2-2.2v-14.388a2.2,2.2,0,0,1,2.2-2.2h19.408m0-2.25h-19.408a4.447,4.447,0,0,0-4.447,4.447v14.388a4.447,4.447,0,0,0,4.447,4.447h19.408a4.447,4.447,0,0,0,4.447-4.447v-14.388a4.447,4.447,0,0,0-4.447-4.447Z" transform="translate(-41.413)"/>
    <path id="路径_88" data-name="路径 88" class="cls-1" d="M2742.625,2296.016a2.2,2.2,0,0,1,2.2,2.2V2312.6a2.2,2.2,0,0,1-2.2,2.2h-19.408a2.2,2.2,0,0,1-2.2-2.2v-14.388a2.2,2.2,0,0,1,2.2-2.2h19.408m0-2.25h-19.408a4.447,4.447,0,0,0-4.447,4.447V2312.6a4.447,4.447,0,0,0,4.447,4.447h19.408a4.447,4.447,0,0,0,4.447-4.447v-14.388a4.447,4.447,0,0,0-4.447-4.447Z" transform="translate(0 -49.78)"/>
  </g>
</svg>
