<svg xmlns="http://www.w3.org/2000/svg" width="45.07" height="39.973" viewBox="0 0 45.07 39.973">
  <defs>
    <style>
      .cls-1 {
        fill: #ffc814;
      }

      .cls-2 {
        fill: none;
      }
    </style>
  </defs>
  <g id="组_218" data-name="组 218" transform="translate(-185 -3319.001)">
    <g id="组_58" data-name="组 58" transform="translate(-816.479 1419.582)">
      <path id="路径_26" data-name="路径 26" class="cls-1" d="M1006.625,1920.4l18.9-20.516a1.449,1.449,0,0,1,2.131,0l18.9,20.516" transform="translate(0 0)"/>
      <rect id="矩形_23" data-name="矩形 23" class="cls-1" width="28.802" height="23.006" rx="3" transform="translate(1012.186 1915.386)"/>
    </g>
    <g id="组_57" data-name="组 57" transform="translate(-973.5 1538.082)">
      <g id="组_51" data-name="组 51" transform="translate(1158.5 1780.919)">
        <path id="路径_21" data-name="路径 21" d="M1197.372,1802.941a1.077,1.077,0,0,1-.794-.348l-17.887-19.42a.292.292,0,0,0-.43,0l-17.887,19.42a1.08,1.08,0,0,1-1.588-1.463l17.887-19.42a2.451,2.451,0,0,1,3.606,0l17.887,19.42a1.08,1.08,0,0,1-.794,1.811Z" transform="translate(-1158.5 -1780.919)"/>
      </g>
      <g id="组_56" data-name="组 56" transform="translate(1161.604 1801.996)">
        <g id="组_52" data-name="组 52">
          <path id="路径_22" data-name="路径 22" d="M1181.844,1877.9h-8.807a3.04,3.04,0,0,1-3.037-3.037V1860.08a1.08,1.08,0,1,1,2.16,0v14.779a.878.878,0,0,0,.877.877h8.807a1.08,1.08,0,1,1,0,2.159Z" transform="translate(-1170 -1859)"/>
        </g>
        <g id="组_53" data-name="组 53" transform="translate(11.574 17.816)">
          <path id="路径_23" data-name="路径 23" class="cls-2" d="M1212.875,1925" transform="translate(-1212.875 -1925)"/>
        </g>
        <g id="组_54" data-name="组 54" transform="translate(20.92)">
          <path id="路径_24" data-name="路径 24" d="M1257.285,1877.9h-8.706a1.08,1.08,0,1,1,0-2.159h8.706a.878.878,0,0,0,.877-.877V1860.08a1.08,1.08,0,0,1,2.16,0v14.779A3.04,3.04,0,0,1,1257.285,1877.9Z" transform="translate(-1247.5 -1859)"/>
        </g>
        <g id="组_55" data-name="组 55" transform="translate(10.798)">
          <path id="路径_25" data-name="路径 25" d="M1221.068,1877.9a1.08,1.08,0,0,1-1.08-1.08v-14.779a.878.878,0,0,0-.877-.877h-6.074a.878.878,0,0,0-.877.877v14.779a1.08,1.08,0,1,1-2.16,0v-14.779a3.04,3.04,0,0,1,3.037-3.037h6.074a3.04,3.04,0,0,1,3.037,3.037v14.779A1.08,1.08,0,0,1,1221.068,1877.9Z" transform="translate(-1210 -1859)"/>
        </g>
      </g>
    </g>
  </g>
</svg>
