<svg xmlns="http://www.w3.org/2000/svg" width="39.951" height="39.973" viewBox="0 0 39.951 39.973">
  <defs>
    <style>
      .cls-1 {
        fill: none;
      }
    </style>
  </defs>
  <g id="组_213" data-name="组 213" transform="translate(-1158.5 -1780.919)">
    <g id="组_51" data-name="组 51" transform="translate(1158.5 1780.919)">
      <path id="路径_21" data-name="路径 21" d="M1197.372,1802.941a1.077,1.077,0,0,1-.794-.348l-17.887-19.42a.292.292,0,0,0-.43,0l-17.887,19.42a1.08,1.08,0,0,1-1.588-1.463l17.887-19.42a2.451,2.451,0,0,1,3.606,0l17.887,19.42a1.08,1.08,0,0,1-.794,1.811Z" transform="translate(-1158.5 -1780.919)"/>
    </g>
    <g id="组_56" data-name="组 56" transform="translate(1161.604 1801.996)">
      <g id="组_52" data-name="组 52">
        <path id="路径_22" data-name="路径 22" d="M1181.844,1877.9h-8.807a3.04,3.04,0,0,1-3.037-3.037V1860.08a1.08,1.08,0,1,1,2.16,0v14.779a.878.878,0,0,0,.877.877h8.807a1.08,1.08,0,1,1,0,2.159Z" transform="translate(-1170 -1859)"/>
      </g>
      <g id="组_53" data-name="组 53" transform="translate(11.574 17.816)">
        <path id="路径_23" data-name="路径 23" class="cls-1" d="M1212.875,1925" transform="translate(-1212.875 -1925)"/>
      </g>
      <g id="组_54" data-name="组 54" transform="translate(20.92)">
        <path id="路径_24" data-name="路径 24" d="M1257.285,1877.9h-8.706a1.08,1.08,0,1,1,0-2.159h8.706a.878.878,0,0,0,.877-.877V1860.08a1.08,1.08,0,0,1,2.16,0v14.779A3.04,3.04,0,0,1,1257.285,1877.9Z" transform="translate(-1247.5 -1859)"/>
      </g>
      <g id="组_55" data-name="组 55" transform="translate(10.798)">
        <path id="路径_25" data-name="路径 25" d="M1221.068,1877.9a1.08,1.08,0,0,1-1.08-1.08v-14.779a.878.878,0,0,0-.877-.877h-6.074a.878.878,0,0,0-.877.877v14.779a1.08,1.08,0,1,1-2.16,0v-14.779a3.04,3.04,0,0,1,3.037-3.037h6.074a3.04,3.04,0,0,1,3.037,3.037v14.779A1.08,1.08,0,0,1,1221.068,1877.9Z" transform="translate(-1210 -1859)"/>
      </g>
    </g>
  </g>
</svg>
