<svg xmlns="http://www.w3.org/2000/svg" width="36.622" height="39.999" viewBox="0 0 36.622 39.999">
  <g id="组_65" data-name="组 65" transform="translate(-619 -1780)">
    <g id="组_60" data-name="组 60" transform="translate(625.54 1780)">
      <path id="路径_28" data-name="路径 28" d="M656.074,1803.792a11.9,11.9,0,1,1,8.411-3.484A11.818,11.818,0,0,1,656.074,1803.792Zm0-21.714a9.818,9.818,0,1,0,6.942,2.875A9.755,9.755,0,0,0,656.074,1782.078Z" transform="translate(-644.178 -1780)"/>
    </g>
    <g id="组_63" data-name="组 63" transform="translate(632.506 1788.312)">
      <g id="组_61" data-name="组 61" transform="translate(0 0)">
        <path id="路径_29" data-name="路径 29" d="M672.039,1818.234a1.039,1.039,0,0,1-1.039-1.039v-4.156a1.039,1.039,0,1,1,2.078,0v4.156A1.039,1.039,0,0,1,672.039,1818.234Z" transform="translate(-671 -1812)"/>
      </g>
      <g id="组_62" data-name="组 62" transform="translate(7.532 0)">
        <path id="路径_30" data-name="路径 30" d="M701.039,1818.234a1.039,1.039,0,0,1-1.039-1.039v-4.156a1.039,1.039,0,1,1,2.078,0v4.156A1.039,1.039,0,0,1,701.039,1818.234Z" transform="translate(-700 -1812)"/>
      </g>
    </g>
    <g id="组_64" data-name="组 64" transform="translate(619 1805.194)">
      <path id="路径_31" data-name="路径 31" d="M653.544,1891.8H621.078a2.08,2.08,0,0,1-2.078-2.078v-2.294A10.445,10.445,0,0,1,629.433,1877H645.19a10.445,10.445,0,0,1,10.433,10.433v2.294A2.08,2.08,0,0,1,653.544,1891.8Zm-24.112-12.727a8.364,8.364,0,0,0-8.355,8.355v2.294h32.467v-2.294a8.364,8.364,0,0,0-8.355-8.355Z" transform="translate(-619 -1877)"/>
    </g>
  </g>
</svg>
