<svg xmlns="http://www.w3.org/2000/svg" width="45.799" height="36.101" viewBox="0 0 45.799 36.101">
  <defs>
    <style>
      .cls-1 {
        fill: #999;
      }

      .cls-2 {
        fill: red;
      }
    </style>
  </defs>
  <g id="组_220" data-name="组 220" transform="translate(-497.201 -61)">
    <g id="组_219" data-name="组 219" transform="translate(-272.049 -907.712)">
      <g id="组_1" data-name="组 1" transform="translate(769.25 972.723)">
        <path id="路径_3" data-name="路径 3" class="cls-1" d="M808.034,1004.813H771.481a2.234,2.234,0,0,1-2.231-2.231V974.119a1.4,1.4,0,0,1,1.4-1.4H808.87a1.4,1.4,0,0,1,1.4,1.4v28.463A2.233,2.233,0,0,1,808.034,1004.813Zm-36.3-2.486H807.78V975.209H771.736Z" transform="translate(-769.25 -972.723)"/>
      </g>
      <g id="组_2" data-name="组 2" transform="translate(769.51 978.679)">
        <path id="路径_4" data-name="路径 4" class="cls-1" d="M790.3,1008.827a1.643,1.643,0,0,1-1.007-.344l-18.722-14.5a1.223,1.223,0,0,1-.213-1.728,1.251,1.251,0,0,1,1.745-.211l18.2,14.094,18.279-14.2a1.252,1.252,0,0,1,1.745.209,1.223,1.223,0,0,1-.211,1.728l-18.8,14.6A1.646,1.646,0,0,1,790.3,1008.827Z" transform="translate(-770.096 -991.679)"/>
      </g>
    </g>
    <circle id="椭圆_12" data-name="椭圆 12" class="cls-2" cx="6" cy="6" r="6" transform="translate(531 61)"/>
  </g>
</svg>
