<svg xmlns="http://www.w3.org/2000/svg" width="20" height="18.156" viewBox="0 0 20 18.156">
  <defs>
    <style>
      .cls-1 {
        fill: red;
      }
    </style>
  </defs>
  <g id="组_102" data-name="组 102" transform="translate(-1499.386 -1159)">
    <g id="组_29" data-name="组 29" transform="translate(1499.386 1159)">
      <path id="路径_17" data-name="路径 17" class="cls-1" d="M1509.386,1177.156a1.3,1.3,0,0,1-.963-.427l-8.71-9.146a1.3,1.3,0,0,1-.1-1.592l4.363-6.423a1.3,1.3,0,0,1,1.075-.569h8.676a1.3,1.3,0,0,1,1.075.569l4.363,6.422a1.3,1.3,0,0,1-.1,1.592l-.016.017-8.694,9.128A1.3,1.3,0,0,1,1509.386,1177.156Zm-8.648-10.439,8.648,9.08,8.648-9.08-4.332-6.377h-8.632Z" transform="translate(-1499.386 -1159)"/>
    </g>
    <g id="组_30" data-name="组 30" transform="translate(1503.623 1166.106)">
      <path id="路径_18" data-name="路径 18" class="cls-1" d="M1545.394,1225.369a1.627,1.627,0,0,1-1.216-.547l-4.338-4.931a.838.838,0,1,1,1.259-1.108l4.295,4.882,4.295-4.882a.838.838,0,0,1,1.259,1.108l-4.335,4.928A1.629,1.629,0,0,1,1545.394,1225.369Z" transform="translate(-1539.632 -1218.499)"/>
    </g>
  </g>
</svg>
