<svg xmlns="http://www.w3.org/2000/svg" width="25.76" height="23.515" viewBox="0 0 25.76 23.515">
  <defs>
    <style>
      .cls-1 {
        fill: #fff;
      }
    </style>
  </defs>
  <g id="组_105" data-name="组 105" transform="translate(-399 -666)">
    <g id="组_9" data-name="组 9" transform="translate(400.31 666)">
      <path id="路径_8" data-name="路径 8" class="cls-1" d="M428.906,681.282a.718.718,0,0,1-.718-.718v-2.9a10.228,10.228,0,0,0-20.456,0v2.9a.718.718,0,1,1-1.436,0v-2.9a11.664,11.664,0,0,1,23.328,0v2.9A.718.718,0,0,1,428.906,681.282Z" transform="translate(-406.296 -666)"/>
    </g>
    <g id="组_10" data-name="组 10" transform="translate(399 678.723)">
      <path id="路径_9" data-name="路径 9" class="cls-1" d="M404.4,747.672a5.4,5.4,0,1,1-.006-10.792h.024a1.282,1.282,0,0,1,1.256,1.286v8.219A1.282,1.282,0,0,1,404.4,747.672Zm-.163-9.353a3.96,3.96,0,0,0,0,7.913Z" transform="translate(-399 -736.881)"/>
    </g>
    <g id="组_11" data-name="组 11" transform="translate(418.085 678.723)">
      <path id="路径_10" data-name="路径 10" class="cls-1" d="M506.6,747.672a1.283,1.283,0,0,1-1.279-1.286v-8.219a1.282,1.282,0,0,1,1.255-1.286h.024a5.4,5.4,0,1,1,0,10.792Zm.157-9.353v7.913a3.96,3.96,0,0,0,0-7.913Zm-.161,0h0Z" transform="translate(-505.322 -736.881)"/>
    </g>
    <g id="组_12" data-name="组 12" transform="translate(413.22 682.232)">
      <path id="路径_11" data-name="路径 11" class="cls-1" d="M478.938,761.23a.718.718,0,0,1-.718-.718v-3.368a.718.718,0,0,1,1.436,0v3.368A.718.718,0,0,1,478.938,761.23Z" transform="translate(-478.22 -756.426)"/>
    </g>
    <g id="组_13" data-name="组 13" transform="translate(409.478 681.53)">
      <path id="路径_12" data-name="路径 12" class="cls-1" d="M458.091,758.631a.718.718,0,0,1-.718-.718v-4.678a.718.718,0,0,1,1.436,0v4.678A.718.718,0,0,1,458.091,758.631Z" transform="translate(-457.373 -752.517)"/>
    </g>
  </g>
</svg>
