<svg xmlns="http://www.w3.org/2000/svg" width="20" height="20" viewBox="0 0 20 20">
  <defs>
    <style>
      .cls-1 {
        fill: #ccc;
      }
    </style>
  </defs>
  <path id="路径_32" data-name="路径 32" class="cls-1" d="M1359.7,1471.5a10,10,0,1,0,10,10A10,10,0,0,0,1359.7,1471.5Zm5.609,14.765a.6.6,0,1,1-.844.844l-4.765-4.765-4.764,4.765a.6.6,0,0,1-.844-.844l4.765-4.764-4.765-4.765a.6.6,0,0,1,.844-.844l4.764,4.765,4.765-4.765a.6.6,0,0,1,.844.844l-4.765,4.765Z" transform="translate(-1349.703 -1471.5)"/>
</svg>
