<svg xmlns="http://www.w3.org/2000/svg" width="46.2" height="38.909" viewBox="0 0 46.2 38.909">
  <defs>
    <style>
      .cls-1 {
        fill: #666;
      }
    </style>
  </defs>
  <path id="未收藏" class="cls-1" d="M2380.135,2062.116a9.148,9.148,0,0,1,6.469,15.617l-4.017,4.017-3.888,3.887-10.486,10.486-10.486-10.486-3.887-3.887-4.017-4.017a9.148,9.148,0,1,1,12.938-12.937l4.017,4.017,1.435,1.436,1.436-1.436,4.017-4.017a9.089,9.089,0,0,1,6.469-2.68m0-2.03a11.143,11.143,0,0,0-7.9,3.274l-4.017,4.017-4.017-4.017a11.178,11.178,0,0,0-15.809,15.809l4.017,4.017,3.887,3.887,11.922,11.921,11.921-11.921,3.887-3.887,4.017-4.017a11.179,11.179,0,0,0-7.9-19.083Z" transform="translate(-2345.113 -2060.086)"/>
</svg>
