<svg xmlns="http://www.w3.org/2000/svg" width="35.034" height="35.034" viewBox="0 0 35.034 35.034">
  <defs>
    <style>
      .cls-1 {
        fill: #666;
      }
    </style>
  </defs>
  <g id="组_172" data-name="组 172" transform="translate(0 0)">
    <g id="组_167" data-name="组 167" transform="translate(19.667 1.048)">
      <path id="路径_73" data-name="路径 73" class="cls-1" d="M2074.5,2064.922a.954.954,0,0,1-.675-1.628l12.814-12.813a.954.954,0,1,1,1.349,1.349l-12.814,12.814A.95.95,0,0,1,2074.5,2064.922Z" transform="translate(-2073.551 -2050.201)"/>
    </g>
    <g id="组_168" data-name="组 168" transform="translate(0)">
      <path id="路径_74" data-name="路径 74" class="cls-1" d="M2023.472,2080.842H1993.7a2.635,2.635,0,0,1-2.632-2.632v-29.771a2.635,2.635,0,0,1,2.632-2.632h16.223a.954.954,0,0,1,0,1.908H1993.7a.725.725,0,0,0-.724.724v29.771a.725.725,0,0,0,.724.724h29.771a.725.725,0,0,0,.724-.724v-16.438a.954.954,0,0,1,1.908,0v16.438A2.635,2.635,0,0,1,2023.472,2080.842Z" transform="translate(-1991.07 -2045.808)"/>
    </g>
    <g id="组_171" data-name="组 171" transform="translate(25.185 0.606)">
      <g id="组_169" data-name="组 169" transform="translate(7.855 0.013)">
        <path id="路径_75" data-name="路径 75" class="cls-1" d="M2130.595,2057.917a.954.954,0,0,1-.954-.954v-7.6a.954.954,0,0,1,1.908,0v7.6A.954.954,0,0,1,2130.595,2057.917Z" transform="translate(-2129.641 -2048.405)"/>
      </g>
      <g id="组_170" data-name="组 170" transform="translate(0)">
        <path id="路径_76" data-name="路径 76" class="cls-1" d="M2105.254,2050.258h-7.6a.954.954,0,1,1,0-1.907h7.6a.954.954,0,0,1,0,1.907Z" transform="translate(-2096.696 -2048.351)"/>
      </g>
    </g>
  </g>
</svg>
