<svg xmlns="http://www.w3.org/2000/svg" width="39.648" height="42.317" viewBox="0 0 39.648 42.317">
  <defs>
    <style>
      .cls-1 {
        fill: #fff;
      }
    </style>
  </defs>
  <g id="组_130" data-name="组 130" transform="translate(-1461.583 -330)">
    <g id="组_124" data-name="组 124" transform="translate(1464.081 339.3)">
      <path id="路径_47" data-name="路径 47" class="cls-1" d="M1494.968,373.713H1468.6a2.335,2.335,0,0,1-2.33-2.206l-1.808-29.459a1.273,1.273,0,0,1,2.541-.156l1.8,29.276h25.973l1.8-29.276a1.273,1.273,0,0,1,2.541.156l-1.809,29.467A2.332,2.332,0,0,1,1494.968,373.713Zm-.211-2.349v0Zm-25.949-.008v0Z" transform="translate(-1464.456 -340.696)"/>
    </g>
    <g id="组_125" data-name="组 125" transform="translate(1461.583 333.418)">
      <path id="路径_48" data-name="路径 48" class="cls-1" d="M1499.958,336.476h-37.1a1.272,1.272,0,1,1,0-2.545h37.1a1.272,1.272,0,1,1,0,2.545Z" transform="translate(-1461.583 -333.931)"/>
    </g>
    <g id="组_126" data-name="组 126" transform="translate(1480.197 344.911)">
      <path id="路径_49" data-name="路径 49" class="cls-1" d="M1484.264,366.559a1.272,1.272,0,0,1-1.273-1.272V348.422a1.273,1.273,0,0,1,2.546,0v16.865A1.273,1.273,0,0,1,1484.264,366.559Z" transform="translate(-1482.991 -347.149)"/>
    </g>
    <g id="组_127" data-name="组 127" transform="translate(1472.451 347.41)">
      <path id="路径_50" data-name="路径 50" class="cls-1" d="M1476.6,366.934a1.273,1.273,0,0,1-1.267-1.162l-1.25-14.366a1.273,1.273,0,1,1,2.536-.221l1.25,14.367a1.273,1.273,0,0,1-1.158,1.378C1476.677,366.934,1476.64,366.934,1476.6,366.934Z" transform="translate(-1474.082 -350.023)"/>
    </g>
    <g id="组_128" data-name="组 128" transform="translate(1486.693 347.41)">
      <path id="路径_51" data-name="路径 51" class="cls-1" d="M1491.737,366.934c-.037,0-.075,0-.112,0a1.273,1.273,0,0,1-1.157-1.378l1.25-14.367a1.273,1.273,0,1,1,2.535.221L1493,365.773A1.272,1.272,0,0,1,1491.737,366.934Z" transform="translate(-1490.462 -350.023)"/>
    </g>
    <g id="组_129" data-name="组 129" transform="translate(1480.134 330)">
      <path id="路径_52" data-name="路径 52" class="cls-1" d="M1484.192,334.548a1.273,1.273,0,0,1-1.273-1.273v-2a1.273,1.273,0,0,1,2.546,0v2A1.273,1.273,0,0,1,1484.192,334.548Z" transform="translate(-1482.919 -330)"/>
    </g>
  </g>
</svg>
