<svg xmlns="http://www.w3.org/2000/svg" width="36" height="36" viewBox="0 0 36 36">
  <defs>
    <style>
      .cls-1 {
        fill: none;
      }

      .cls-2, .cls-3 {
        stroke: none;
      }

      .cls-3 {
        fill: #ffc814;
      }
    </style>
  </defs>
  <g id="路径_42" data-name="路径 42" class="cls-1">
    <path class="cls-2" d="M18,0A18,18,0,1,1,0,18,18,18,0,0,1,18,0Z"/>
    <path class="cls-3" d="M 18 2 C 13.72624969482422 2 9.70829963684082 3.664291381835938 6.686290740966797 6.686290740966797 C 3.664291381835938 9.70829963684082 2 13.72624969482422 2 18 C 2 22.27375030517578 3.664291381835938 26.29170036315918 6.686290740966797 29.3137092590332 C 9.70829963684082 32.33570861816406 13.72624969482422 34 18 34 C 22.27375030517578 34 26.29170036315918 32.33570861816406 29.3137092590332 29.3137092590332 C 32.33570861816406 26.29170036315918 34 22.27375030517578 34 18 C 34 13.72624969482422 32.33570861816406 9.70829963684082 29.3137092590332 6.686290740966797 C 26.29170036315918 3.664291381835938 22.27375030517578 2 18 2 M 18 0 C 27.94112014770508 0 36 8.058879852294922 36 18 C 36 27.94112014770508 27.94112014770508 36 18 36 C 8.058879852294922 36 0 27.94112014770508 0 18 C 0 8.058879852294922 8.058879852294922 0 18 0 Z"/>
  </g>
</svg>
