<svg xmlns="http://www.w3.org/2000/svg" width="36" height="36" viewBox="0 0 36 36">
  <defs>
    <style>
      .cls-1 {
        fill: #ffc814;
      }
    </style>
  </defs>
  <path id="路径_45" data-name="路径 45" class="cls-1" d="M1335,1754a18,18,0,1,0,18,18A18,18,0,0,0,1335,1754Zm11.132,13.984L1334.62,1779.5c-.028.028-.06.048-.09.073s-.045.061-.072.089a1.375,1.375,0,0,1-1.946,0l-6.81-6.81a1.376,1.376,0,0,1,1.946-1.945l5.837,5.837,10.7-10.7a1.376,1.376,0,1,1,1.946,1.945Z" transform="translate(-1317 -1754)"/>
</svg>
