<svg xmlns="http://www.w3.org/2000/svg" width="112" height="112" viewBox="0 0 112 112">
  <defs>
    <style>
      .cls-1 {
        fill: #fff2c5;
      }

      .cls-2 {
        fill: #a88100;
      }
    </style>
  </defs>
  <g id="vip课程免费" transform="translate(-409 -656)">
    <path id="路径_264" data-name="路径 264" class="cls-1" d="M56,0A56,56,0,1,1,0,56,56,56,0,0,1,56,0Z" transform="translate(409 656)"/>
    <g id="组_468" data-name="组 468" transform="translate(-702.521 -2349.063)">
      <g id="组_460" data-name="组 460" transform="translate(1154.305 3045.446)">
        <path id="路径_265" data-name="路径 265" class="cls-2" d="M1170.06,3063.275h9.561a36.074,36.074,0,0,0,4.095-3.977h-9.533a32.962,32.962,0,0,1-6.9,5.848l-.994-1.228a28.151,28.151,0,0,0,9.182-8.919l1.608.351q-.615,1.023-1.7,2.485h10.351v1.228a31.355,31.355,0,0,1-4.064,4.211h7.6v8.451h-6.725v6.492q0,1.519,1.4,1.521h4.884a1.482,1.482,0,0,0,1.316-.556q.5-.731.672-4.211l1.491.468q-.262,4.122-1.053,5.088a2.673,2.673,0,0,1-2.105.761h-5.673q-2.515,0-2.515-2.749v-6.813h-1.93q-.263.761-.673,1.725-2.516,5.118-10.994,8.3l-.994-1.228q7.661-2.807,10.264-7.222a14.024,14.024,0,0,0,.7-1.579h-7.281Zm7.778,6.93a25.937,25.937,0,0,0,.731-5.439h-6.93v5.439Zm9.884,0v-5.439h-7.574a25.2,25.2,0,0,1-.672,5.439Z" transform="translate(-1166.288 -3055)"/>
      </g>
      <g id="组_467" data-name="组 467" transform="translate(1137.521 3032.063)">
        <g id="组_461" data-name="组 461" transform="translate(0 1.551)">
          <path id="路径_266" data-name="路径 266" class="cls-2" d="M1138.4,3060.992c-.027,0-.055,0-.083,0a.875.875,0,0,1-.789-.953,29.7,29.7,0,0,1,19.909-25.266.875.875,0,1,1,.568,1.656,27.946,27.946,0,0,0-18.734,23.774A.876.876,0,0,1,1138.4,3060.992Z" transform="translate(-1137.521 -3034.721)"/>
        </g>
        <g id="组_462" data-name="组 462" transform="translate(19.321)">
          <path id="路径_267" data-name="路径 267" class="cls-2" d="M1206.9,3050.294a.875.875,0,0,1-.791-.5,27.96,27.96,0,0,0-34.311-14.476.875.875,0,0,1-.568-1.656,29.711,29.711,0,0,1,36.46,15.383.875.875,0,0,1-.79,1.25Z" transform="translate(-1170.637 -3032.063)"/>
        </g>
        <g id="组_463" data-name="组 463" transform="translate(47.163 8.549)">
          <path id="路径_268" data-name="路径 268" class="cls-2" d="M1227.947,3056.567l-8.845-1.34a.876.876,0,1,1,.262-1.731l7.115,1.078,1.078-7.115a.875.875,0,0,1,1.731.261Z" transform="translate(-1218.357 -3046.715)"/>
        </g>
        <g id="组_464" data-name="组 464" transform="translate(38.588 29.574)">
          <path id="路径_269" data-name="路径 269" class="cls-2" d="M1204.535,3109.022a.875.875,0,0,1-.284-1.7,27.948,27.948,0,0,0,18.734-23.775.875.875,0,0,1,1.743.165,29.7,29.7,0,0,1-19.91,25.266A.866.866,0,0,1,1204.535,3109.022Z" transform="translate(-1203.66 -3082.751)"/>
        </g>
        <g id="组_465" data-name="组 465" transform="translate(3.203 39.166)">
          <path id="路径_270" data-name="路径 270" class="cls-2" d="M1169.924,3117.421a29.823,29.823,0,0,1-26.828-16.98.875.875,0,1,1,1.582-.75,27.961,27.961,0,0,0,34.31,14.476.875.875,0,1,1,.568,1.656A29.6,29.6,0,0,1,1169.924,3117.421Z" transform="translate(-1143.011 -3099.19)"/>
        </g>
        <g id="组_466" data-name="组 466" transform="translate(1.556 38.996)">
          <path id="路径_271" data-name="路径 271" class="cls-2" d="M1141.065,3108.752a1.048,1.048,0,0,1-.132-.009.876.876,0,0,1-.734-1l1.34-8.847,8.846,1.341a.875.875,0,1,1-.262,1.731l-7.115-1.078-1.078,7.115A.876.876,0,0,1,1141.065,3108.752Z" transform="translate(-1140.189 -3098.9)"/>
        </g>
      </g>
    </g>
  </g>
</svg>
