<svg id="黄金vip" xmlns="http://www.w3.org/2000/svg" xmlns:xlink="http://www.w3.org/1999/xlink" width="23.155" height="21.489" viewBox="0 0 23.155 21.489">
  <defs>
    <style>
      .cls-1 {
        fill: none;
      }

      .cls-2 {
        clip-path: url(#clip-path);
      }

      .cls-3 {
        fill: #f9c85d;
      }

      .cls-4 {
        fill: #ffb103;
      }

      .cls-5 {
        fill: #f7ead0;
      }

      .cls-6 {
        fill: #da3329;
      }

      .cls-7 {
        fill: #c11b16;
      }
    </style>
    <clipPath id="clip-path">
      <rect id="矩形_174" data-name="矩形 174" class="cls-1" width="23.155" height="21.489"/>
    </clipPath>
  </defs>
  <g id="组_475" data-name="组 475" transform="translate(0 0)">
    <g id="组_474" data-name="组 474" class="cls-2" transform="translate(0 0)">
      <path id="路径_285" data-name="路径 285" class="cls-3" d="M1417.111,116.679a1.723,1.723,0,0,0-1.234,2.8l-.18.757a3.431,3.431,0,0,1-6.758-.523l-.171-2.141a2.529,2.529,0,1,0-2.785,0l-.171,2.141a3.431,3.431,0,0,1-6.758.523l-.18-.757a1.725,1.725,0,1,0-2.045.5l1.537,10.857h18.013v0l1.536-10.853a1.728,1.728,0,0,0-.8-3.305Zm0,0" transform="translate(-1395.8 -112.863)"/>
    </g>
  </g>
  <path id="路径_286" data-name="路径 286" class="cls-3" d="M1423.887,210.357h-12.672a2.669,2.669,0,0,1-2.67-2.67h18.013a2.671,2.671,0,0,1-2.67,2.67Zm0,0" transform="translate(-1406.026 -188.896)"/>
  <g id="组_477" data-name="组 477" transform="translate(0 0)">
    <g id="组_476" data-name="组 476" class="cls-2" transform="translate(0 0)">
      <path id="路径_287" data-name="路径 287" class="cls-3" d="M1395.835,133.561a1.731,1.731,0,1,0,1.731-1.731,1.731,1.731,0,0,0-1.731,1.731Zm0,0" transform="translate(-1395.828 -128.026)"/>
      <path id="路径_288" data-name="路径 288" class="cls-4" d="M1464.11,116.695a1.722,1.722,0,0,0-1.234,2.8l-.18.757a3.431,3.431,0,0,1-6.758-.523l-.171-2.141a2.531,2.531,0,0,0-.848-4.584,2.584,2.584,0,0,0-.548-.054V130.86h9.006v0L1464.913,120a1.73,1.73,0,0,0-.8-3.307Zm0,0" transform="translate(-1442.799 -112.879)"/>
      <path id="路径_289" data-name="路径 289" class="cls-3" d="M1495.476,133.571a1.729,1.729,0,1,0,1.729-1.729,1.729,1.729,0,0,0-1.729,1.729Zm0,0" transform="translate(-1475.783 -128.035)"/>
      <path id="路径_290" data-name="路径 290" class="cls-3" d="M1441.446,115.133a2.558,2.558,0,1,0,1.279-2.215,2.558,2.558,0,0,0-1.279,2.215Zm0,0" transform="translate(-1432.428 -112.575)"/>
    </g>
  </g>
  <path id="路径_291" data-name="路径 291" class="cls-4" d="M1454.132,207.687v2.67h6.4a2.606,2.606,0,0,0,2.607-2.607v-.063Zm0,0" transform="translate(-1442.608 -188.896)"/>
  <path id="路径_292" data-name="路径 292" class="cls-4" d="M1401.491,119.857a3.783,3.783,0,0,1-2.324,2.542,1.707,1.707,0,0,0,1.073.382,1.728,1.728,0,0,0,1.251-2.923Zm19.688.014a3.861,3.861,0,0,1-2.373,2.49,1.722,1.722,0,0,0,2.373-2.49Zm-9.318-3.633a1.461,1.461,0,0,1,.084.48c0,1.2-1.5,2.181-3.352,2.181a4.918,4.918,0,0,1-.963-.094,2.557,2.557,0,1,0,4.23-2.567Zm0,0" transform="translate(-1398.502 -115.514)"/>
  <path id="路径_293" data-name="路径 293" class="cls-5" d="M1504.343,134.612a.737.737,0,0,0,.4.117c.1-.011.14-.076.1-.17a.879.879,0,0,0-.7-.4c-.1.011-.14.076-.1.171a.737.737,0,0,0,.3.287Zm0,0" transform="translate(-1482.645 -129.89)"/>
  <path id="路径_294" data-name="路径 294" class="cls-5" d="M1449.26,115.432c0,.137.434.248.97.248s.969-.111.969-.248-.434-.248-.969-.248-.97.111-.97.248Zm0,0" transform="translate(-1438.698 -114.669)"/>
  <path id="路径_295" data-name="路径 295" class="cls-6" d="M1450.057,177.2h-1.438a.593.593,0,0,1,0-1.185h1.438a.593.593,0,0,1,0,1.185Zm0,0" transform="translate(-1437.708 -163.484)"/>
  <path id="路径_296" data-name="路径 296" class="cls-7" d="M1455.166,176.006h-.773v1.188h.773a.594.594,0,0,0,0-1.188Zm0,0" transform="translate(-1442.817 -163.474)"/>
</svg>
