<svg xmlns="http://www.w3.org/2000/svg" width="112" height="112" viewBox="0 0 112 112">
  <defs>
    <style>
      .cls-1 {
        fill: #fff2c5;
      }

      .cls-2 {
        fill: #a88100;
      }
    </style>
  </defs>
  <g id="积分奖励" transform="translate(-229 -656)">
    <circle id="椭圆_222" data-name="椭圆 222" class="cls-1" cx="56" cy="56" r="56" transform="translate(229 656)"/>
    <g id="组_450" data-name="组 450" transform="translate(-412.75 -2338.498)">
      <g id="组_445" data-name="组 445" transform="translate(698.607 3021.498)">
        <path id="路径_252" data-name="路径 252" class="cls-2" d="M734.792,3037.333a.836.836,0,0,1-.591-1.427l3.163-3.163a16.331,16.331,0,0,0,2.129-2.443c.649-1.022.371-1.3.28-1.391l-5.123-5.123a2.755,2.755,0,0,0-3.834.377l-8.648,8.649a.836.836,0,0,1-1.182-1.182l8.648-8.649a4.957,4.957,0,0,1,3.114-1.47,3.867,3.867,0,0,1,3.083,1.093l5.123,5.123c.6.6,1.078,1.689-.051,3.468a17.511,17.511,0,0,1-2.358,2.729l-3.163,3.164A.833.833,0,0,1,734.792,3037.333Z" transform="translate(-720.742 -3021.499)"/>
      </g>
      <g id="组_446" data-name="组 446" transform="translate(677.161 3021.498)">
        <path id="路径_253" data-name="路径 253" class="cls-2" d="M688.9,3037.179a.834.834,0,0,1-.591-.245l-3.009-3.01a17.566,17.566,0,0,1-2.358-2.73c-1.129-1.779-.651-2.868-.05-3.468l5.122-5.123a3.865,3.865,0,0,1,3.083-1.093,4.957,4.957,0,0,1,3.114,1.47l8.779,8.78a.836.836,0,0,1-1.182,1.182l-8.779-8.779a3.286,3.286,0,0,0-2.057-.985,2.22,2.22,0,0,0-1.776.608l-5.122,5.123c-.091.091-.368.369.28,1.391a16.291,16.291,0,0,0,2.128,2.443l3.009,3.01a.836.836,0,0,1-.591,1.427Z" transform="translate(-682.255 -3021.498)"/>
      </g>
      <g id="组_447" data-name="组 447" transform="translate(675.486 3052.147)">
        <path id="路径_254" data-name="路径 254" class="cls-2" d="M720.764,3103.247H682.315a3.069,3.069,0,0,1-3.065-3.065V3076.5h44.579v23.683A3.069,3.069,0,0,1,720.764,3103.247Zm-39.842-25.076v22.011a1.4,1.4,0,0,0,1.393,1.393h38.449a1.4,1.4,0,0,0,1.393-1.393v-22.011Z" transform="translate(-679.25 -3076.5)"/>
      </g>
      <g id="组_448" data-name="组 448" transform="translate(670.75 3036.266)">
        <path id="路径_255" data-name="路径 255" class="cls-2" d="M724.8,3065.553H674.651a3.906,3.906,0,0,1-3.9-3.9V3048H720.9a3.906,3.906,0,0,1,3.9,3.9Zm-52.38-15.881v11.98a2.231,2.231,0,0,0,2.229,2.229H723.13V3051.9a2.231,2.231,0,0,0-2.229-2.229Z" transform="translate(-670.75 -3048)"/>
      </g>
      <g id="组_449" data-name="组 449" transform="translate(692.064 3031.808)">
        <path id="路径_256" data-name="路径 256" class="cls-2" d="M719.134,3046.129h-8.568a1.569,1.569,0,0,1-1.567-1.567v-3a1.569,1.569,0,0,1,1.567-1.567h8.568a1.569,1.569,0,0,1,1.568,1.567v3A1.569,1.569,0,0,1,719.134,3046.129Zm-8.463-1.671h8.358v-2.786h-8.358Z" transform="translate(-709 -3040)"/>
      </g>
    </g>
  </g>
</svg>
