<svg xmlns="http://www.w3.org/2000/svg" width="380.601" height="142.557" viewBox="0 0 380.601 142.557">
  <defs>
    <style>
      .cls-1, .cls-2, .cls-3 {
        fill: #ffc814;
      }

      .cls-3 {
        stroke: #fff;
        stroke-width: 2px;
      }

      .cls-4, .cls-5 {
        stroke: none;
      }

      .cls-5 {
        fill: #fff;
      }

      .cls-6 {
        fill: none;
      }
    </style>
  </defs>
  <g id="专享优惠券" transform="translate(-30 -973)">
    <path id="减去_8" data-name="减去 8" class="cls-1" d="M379,142.556H4a4,4,0,0,1-4-4V82.9c.417.027.846.041,1.275.041,8.2,0,14.871-5.087,14.871-11.339S9.475,60.262,1.275,60.262c-.424,0-.853.014-1.275.041V4A4,4,0,0,1,4,0H379V142.555Z" transform="translate(30 973)"/>
    <g id="组_406" data-name="组 406" transform="translate(407.3 974.944)">
      <ellipse id="椭圆_49" data-name="椭圆 49" class="cls-1" cx="1.651" cy="1.259" rx="1.651" ry="1.259" transform="translate(0 136.076)"/>
      <ellipse id="椭圆_179" data-name="椭圆 179" class="cls-1" cx="1.651" cy="1.259" rx="1.651" ry="1.259" transform="translate(0 4.536)"/>
      <ellipse id="椭圆_180" data-name="椭圆 180" class="cls-1" cx="1.651" cy="1.259" rx="1.651" ry="1.259" transform="translate(0 68.038)"/>
      <ellipse id="椭圆_181" data-name="椭圆 181" class="cls-1" cx="1.651" cy="1.259" rx="1.651" ry="1.259" transform="translate(0 9.072)"/>
      <ellipse id="椭圆_182" data-name="椭圆 182" class="cls-1" cx="1.651" cy="1.259" rx="1.651" ry="1.259" transform="translate(0 13.608)"/>
      <ellipse id="椭圆_183" data-name="椭圆 183" class="cls-1" cx="1.651" cy="1.259" rx="1.651" ry="1.259" transform="translate(0 18.143)"/>
      <ellipse id="椭圆_184" data-name="椭圆 184" class="cls-1" cx="1.651" cy="1.259" rx="1.651" ry="1.259" transform="translate(0 22.679)"/>
      <ellipse id="椭圆_185" data-name="椭圆 185" class="cls-1" cx="1.651" cy="1.259" rx="1.651" ry="1.259" transform="translate(0 27.215)"/>
      <ellipse id="椭圆_186" data-name="椭圆 186" class="cls-1" cx="1.651" cy="1.259" rx="1.651" ry="1.259" transform="translate(0 31.751)"/>
      <ellipse id="椭圆_187" data-name="椭圆 187" class="cls-1" cx="1.651" cy="1.259" rx="1.651" ry="1.259" transform="translate(0 36.287)"/>
      <ellipse id="椭圆_188" data-name="椭圆 188" class="cls-1" cx="1.651" cy="1.259" rx="1.651" ry="1.259" transform="translate(0 40.823)"/>
      <ellipse id="椭圆_189" data-name="椭圆 189" class="cls-1" cx="1.651" cy="1.259" rx="1.651" ry="1.259" transform="translate(0 45.359)"/>
      <ellipse id="椭圆_190" data-name="椭圆 190" class="cls-1" cx="1.651" cy="1.259" rx="1.651" ry="1.259" transform="translate(0 49.895)"/>
      <ellipse id="椭圆_191" data-name="椭圆 191" class="cls-1" cx="1.651" cy="1.259" rx="1.651" ry="1.259" transform="translate(0 54.43)"/>
      <ellipse id="椭圆_192" data-name="椭圆 192" class="cls-1" cx="1.651" cy="1.259" rx="1.651" ry="1.259" transform="translate(0 58.966)"/>
      <ellipse id="椭圆_193" data-name="椭圆 193" class="cls-1" cx="1.651" cy="1.259" rx="1.651" ry="1.259" transform="translate(0 63.502)"/>
      <ellipse id="椭圆_194" data-name="椭圆 194" class="cls-1" cx="1.651" cy="1.259" rx="1.651" ry="1.259" transform="translate(0 0)"/>
      <ellipse id="椭圆_195" data-name="椭圆 195" class="cls-1" cx="1.651" cy="1.259" rx="1.651" ry="1.259" transform="translate(0 72.574)"/>
      <ellipse id="椭圆_196" data-name="椭圆 196" class="cls-1" cx="1.651" cy="1.259" rx="1.651" ry="1.259" transform="translate(0 77.11)"/>
      <ellipse id="椭圆_197" data-name="椭圆 197" class="cls-1" cx="1.651" cy="1.259" rx="1.651" ry="1.259" transform="translate(0 81.646)"/>
      <ellipse id="椭圆_198" data-name="椭圆 198" class="cls-1" cx="1.651" cy="1.259" rx="1.651" ry="1.259" transform="translate(0 86.181)"/>
      <ellipse id="椭圆_199" data-name="椭圆 199" class="cls-1" cx="1.651" cy="1.259" rx="1.651" ry="1.259" transform="translate(0 90.717)"/>
      <ellipse id="椭圆_200" data-name="椭圆 200" class="cls-1" cx="1.651" cy="1.259" rx="1.651" ry="1.259" transform="translate(0 95.253)"/>
      <ellipse id="椭圆_201" data-name="椭圆 201" class="cls-1" cx="1.651" cy="1.259" rx="1.651" ry="1.259" transform="translate(0 99.789)"/>
      <ellipse id="椭圆_202" data-name="椭圆 202" class="cls-1" cx="1.651" cy="1.259" rx="1.651" ry="1.259" transform="translate(0 104.325)"/>
      <ellipse id="椭圆_203" data-name="椭圆 203" class="cls-1" cx="1.651" cy="1.259" rx="1.651" ry="1.259" transform="translate(0 108.861)"/>
      <ellipse id="椭圆_204" data-name="椭圆 204" class="cls-1" cx="1.651" cy="1.259" rx="1.651" ry="1.259" transform="translate(0 113.397)"/>
      <ellipse id="椭圆_205" data-name="椭圆 205" class="cls-1" cx="1.651" cy="1.259" rx="1.651" ry="1.259" transform="translate(0 117.933)"/>
      <ellipse id="椭圆_206" data-name="椭圆 206" class="cls-1" cx="1.651" cy="1.259" rx="1.651" ry="1.259" transform="translate(0 122.468)"/>
      <ellipse id="椭圆_207" data-name="椭圆 207" class="cls-1" cx="1.651" cy="1.259" rx="1.651" ry="1.259" transform="translate(0 127.004)"/>
      <ellipse id="椭圆_208" data-name="椭圆 208" class="cls-1" cx="1.651" cy="1.259" rx="1.651" ry="1.259" transform="translate(0 131.54)"/>
    </g>
    <g id="减去_9" data-name="减去 9" class="cls-2" transform="translate(40.368 983)">
      <path class="cls-4" d="M 352.9579772949219 122.1163864135742 L 3.999594449996948 122.1163864135742 C 2.34559440612793 122.1163864135742 1.000003457069397 120.7703857421875 1.000003457069397 119.1159286499023 L 1.000003457069397 80.68363189697266 C 10.09328174591064 76.92568969726563 15.71141242980957 69.771728515625 15.71141242980957 61.8822021484375 C 15.71141242980957 53.99182891845703 10.0933666229248 46.83784103393555 1.000003457069397 43.08074188232422 L 1.000003457069397 3.99960994720459 C 1.000003457069397 2.345609903335571 2.34559440612793 1.000019073486328 3.999594449996948 1.000019073486328 L 357.263916015625 1.000019073486328 L 357.263916015625 118.8780517578125 C 355.0121154785156 118.9322357177734 353.1740417480469 120.3357620239258 352.9579772949219 122.1163864135742 Z"/>
      <path class="cls-5" d="M 354.0443115234375 125.1163864135742 L 354.0450134277344 123.1166229248047 L 354.0443115234375 125.1163864135742 M 352.1683349609375 121.1163864135742 C 352.7347717285156 119.5169296264648 354.2892456054688 118.3096160888672 356.263916015625 117.9716796875 L 356.263916015625 2.000019073486328 L 3.999594449996948 2.000019073486328 C 2.897003412246704 2.000019073486328 2.000003576278687 2.897018909454346 2.000003576278687 3.99960994720459 L 2.000003576278687 42.41922760009766 C 11.11131381988525 46.40082168579102 16.71141242980957 53.75934982299805 16.71141242980957 61.8822021484375 C 16.71141242980957 70.00418090820313 11.11122989654541 77.36272430419922 2.000003576278687 81.34507751464844 L 2.000003576278687 119.1159286499023 C 2.000003576278687 120.2189712524414 2.897003412246704 121.1163864135742 3.999594449996948 121.1163864135742 L 352.1683349609375 121.1163864135742 M 354.0457458496094 123.1163864135742 L 354.0443115234375 123.1163864135742 L 354.0457458496094 123.1163864135742 Z M 354.0457458496094 123.1163864135742 L 3.999594449996948 123.1163864135742 C 1.794230699539185 123.1163864135742 3.46235788128979e-06 121.3217926025391 3.46235788128979e-06 119.1159286499023 L 3.46235788128979e-06 80.00729370117188 C 9.074594497680664 76.47760772705078 14.71141242980957 69.5328369140625 14.71141242980957 61.8822021484375 C 14.71141242980957 54.23097229003906 9.074321746826172 47.28583908081055 3.46235788128979e-06 43.75711059570313 L 3.46235788128979e-06 3.99960994720459 C 3.46235788128979e-06 1.794246315956116 1.794230699539185 1.901799987535924e-05 3.999594449996948 1.901799987535924e-05 L 358.263916015625 1.901799987535924e-05 L 358.263916015625 119.9579772949219 C 357.9846801757813 119.9041976928711 357.694091796875 119.8764266967773 357.3990173339844 119.8764266967773 C 355.4898986816406 119.8764266967773 353.9367370605469 121.0391998291016 353.9367370605469 122.4684295654297 C 353.9367370605469 122.687385559082 353.9732360839844 122.9049758911133 354.0452880859375 123.1150665283203 L 354.0457458496094 123.1163864135742 Z"/>
    </g>
    <g id="椭圆_217" data-name="椭圆 217" class="cls-3" transform="translate(394.305 981.056)">
      <ellipse class="cls-4" cx="3.461" cy="2.592" rx="3.461" ry="2.592"/>
      <ellipse class="cls-6" cx="3.461" cy="2.592" rx="2.461" ry="1.592"/>
    </g>
    <path id="减去_14" data-name="减去 14" class="cls-1" d="M379,142.556H4a4,4,0,0,1-4-4V82.9c.417.027.846.041,1.275.041,8.2,0,14.871-5.087,14.871-11.339S9.475,60.262,1.275,60.262c-.424,0-.853.014-1.275.041V4A4,4,0,0,1,4,0H379V142.555Z" transform="translate(30 973)"/>
    <g id="组_479" data-name="组 479" transform="translate(407.3 974.944)">
      <ellipse id="椭圆_226" data-name="椭圆 226" class="cls-1" cx="1.651" cy="1.259" rx="1.651" ry="1.259" transform="translate(0 136.076)"/>
      <ellipse id="椭圆_227" data-name="椭圆 227" class="cls-1" cx="1.651" cy="1.259" rx="1.651" ry="1.259" transform="translate(0 4.536)"/>
      <ellipse id="椭圆_228" data-name="椭圆 228" class="cls-1" cx="1.651" cy="1.259" rx="1.651" ry="1.259" transform="translate(0 68.038)"/>
      <ellipse id="椭圆_229" data-name="椭圆 229" class="cls-1" cx="1.651" cy="1.259" rx="1.651" ry="1.259" transform="translate(0 9.072)"/>
      <ellipse id="椭圆_230" data-name="椭圆 230" class="cls-1" cx="1.651" cy="1.259" rx="1.651" ry="1.259" transform="translate(0 13.608)"/>
      <ellipse id="椭圆_231" data-name="椭圆 231" class="cls-1" cx="1.651" cy="1.259" rx="1.651" ry="1.259" transform="translate(0 18.143)"/>
      <ellipse id="椭圆_232" data-name="椭圆 232" class="cls-1" cx="1.651" cy="1.259" rx="1.651" ry="1.259" transform="translate(0 22.679)"/>
      <ellipse id="椭圆_233" data-name="椭圆 233" class="cls-1" cx="1.651" cy="1.259" rx="1.651" ry="1.259" transform="translate(0 27.215)"/>
      <ellipse id="椭圆_234" data-name="椭圆 234" class="cls-1" cx="1.651" cy="1.259" rx="1.651" ry="1.259" transform="translate(0 31.751)"/>
      <ellipse id="椭圆_235" data-name="椭圆 235" class="cls-1" cx="1.651" cy="1.259" rx="1.651" ry="1.259" transform="translate(0 36.287)"/>
      <ellipse id="椭圆_236" data-name="椭圆 236" class="cls-1" cx="1.651" cy="1.259" rx="1.651" ry="1.259" transform="translate(0 40.823)"/>
      <ellipse id="椭圆_237" data-name="椭圆 237" class="cls-1" cx="1.651" cy="1.259" rx="1.651" ry="1.259" transform="translate(0 45.359)"/>
      <ellipse id="椭圆_238" data-name="椭圆 238" class="cls-1" cx="1.651" cy="1.259" rx="1.651" ry="1.259" transform="translate(0 49.895)"/>
      <ellipse id="椭圆_239" data-name="椭圆 239" class="cls-1" cx="1.651" cy="1.259" rx="1.651" ry="1.259" transform="translate(0 54.43)"/>
      <ellipse id="椭圆_240" data-name="椭圆 240" class="cls-1" cx="1.651" cy="1.259" rx="1.651" ry="1.259" transform="translate(0 58.966)"/>
      <ellipse id="椭圆_241" data-name="椭圆 241" class="cls-1" cx="1.651" cy="1.259" rx="1.651" ry="1.259" transform="translate(0 63.502)"/>
      <ellipse id="椭圆_242" data-name="椭圆 242" class="cls-1" cx="1.651" cy="1.259" rx="1.651" ry="1.259" transform="translate(0 0)"/>
      <ellipse id="椭圆_243" data-name="椭圆 243" class="cls-1" cx="1.651" cy="1.259" rx="1.651" ry="1.259" transform="translate(0 72.574)"/>
      <ellipse id="椭圆_244" data-name="椭圆 244" class="cls-1" cx="1.651" cy="1.259" rx="1.651" ry="1.259" transform="translate(0 77.11)"/>
      <ellipse id="椭圆_245" data-name="椭圆 245" class="cls-1" cx="1.651" cy="1.259" rx="1.651" ry="1.259" transform="translate(0 81.646)"/>
      <ellipse id="椭圆_246" data-name="椭圆 246" class="cls-1" cx="1.651" cy="1.259" rx="1.651" ry="1.259" transform="translate(0 86.181)"/>
      <ellipse id="椭圆_247" data-name="椭圆 247" class="cls-1" cx="1.651" cy="1.259" rx="1.651" ry="1.259" transform="translate(0 90.717)"/>
      <ellipse id="椭圆_248" data-name="椭圆 248" class="cls-1" cx="1.651" cy="1.259" rx="1.651" ry="1.259" transform="translate(0 95.253)"/>
      <ellipse id="椭圆_249" data-name="椭圆 249" class="cls-1" cx="1.651" cy="1.259" rx="1.651" ry="1.259" transform="translate(0 99.789)"/>
      <ellipse id="椭圆_250" data-name="椭圆 250" class="cls-1" cx="1.651" cy="1.259" rx="1.651" ry="1.259" transform="translate(0 104.325)"/>
      <ellipse id="椭圆_251" data-name="椭圆 251" class="cls-1" cx="1.651" cy="1.259" rx="1.651" ry="1.259" transform="translate(0 108.861)"/>
      <ellipse id="椭圆_252" data-name="椭圆 252" class="cls-1" cx="1.651" cy="1.259" rx="1.651" ry="1.259" transform="translate(0 113.397)"/>
      <ellipse id="椭圆_253" data-name="椭圆 253" class="cls-1" cx="1.651" cy="1.259" rx="1.651" ry="1.259" transform="translate(0 117.933)"/>
      <ellipse id="椭圆_254" data-name="椭圆 254" class="cls-1" cx="1.651" cy="1.259" rx="1.651" ry="1.259" transform="translate(0 122.468)"/>
      <ellipse id="椭圆_255" data-name="椭圆 255" class="cls-1" cx="1.651" cy="1.259" rx="1.651" ry="1.259" transform="translate(0 127.004)"/>
      <ellipse id="椭圆_256" data-name="椭圆 256" class="cls-1" cx="1.651" cy="1.259" rx="1.651" ry="1.259" transform="translate(0 131.54)"/>
    </g>
    <g id="减去_29" data-name="减去 29" class="cls-2" transform="translate(-207.632 4833.056)">
      <path class="cls-4" d="M 600.9581909179688 -3727.93994140625 L 251.9999542236328 -3727.93994140625 C 250.3455963134766 -3727.93994140625 248.9996795654297 -3729.285888671875 248.9996795654297 -3730.940185546875 L 248.9996795654297 -3769.372802734375 C 258.0930786132813 -3773.130615234375 263.7113342285156 -3780.284423828125 263.7113342285156 -3788.174072265625 C 263.7113342285156 -3796.06396484375 258.0930786132813 -3803.218017578125 248.9996795654297 -3806.9755859375 L 248.9996795654297 -3846.056640625 C 248.9996795654297 -3847.71044921875 250.3455963134766 -3849.05615234375 251.9999542236328 -3849.05615234375 L 600.9581909179688 -3849.05615234375 C 601.1744384765625 -3847.275634765625 603.0122680664063 -3845.872314453125 605.263916015625 -3845.818359375 L 605.263916015625 -3731.177734375 C 603.0122680664063 -3731.123779296875 601.1744384765625 -3729.720458984375 600.9581909179688 -3727.93994140625 Z"/>
      <path class="cls-5" d="M 600.1686401367188 -3728.93994140625 C 600.735107421875 -3730.5390625 602.2896118164063 -3731.746337890625 604.263916015625 -3732.084228515625 L 604.263916015625 -3844.911865234375 C 602.2896118164063 -3845.249755859375 600.735107421875 -3846.45703125 600.1686401367188 -3848.05615234375 L 251.9999542236328 -3848.05615234375 C 250.8970031738281 -3848.05615234375 249.9996795654297 -3847.1591796875 249.9996795654297 -3846.056640625 L 249.9996795654297 -3807.63720703125 C 259.111083984375 -3803.655029296875 264.7113342285156 -3796.29638671875 264.7113342285156 -3788.174072265625 C 264.7113342285156 -3780.052001953125 259.111083984375 -3772.693359375 249.9996795654297 -3768.711181640625 L 249.9996795654297 -3730.940185546875 C 249.9996795654297 -3729.837158203125 250.8970031738281 -3728.93994140625 251.9999542236328 -3728.93994140625 L 600.1686401367188 -3728.93994140625 M 602.0460815429688 -3726.93994140625 L 602.0455322265625 -3726.93994140625 L 602.0441284179688 -3726.93994140625 L 602.0455322265625 -3726.93994140625 L 602.0460815429688 -3726.93994140625 Z M 602.0460815429688 -3726.93994140625 L 251.9999542236328 -3726.93994140625 C 249.794189453125 -3726.93994140625 247.9996795654297 -3728.734375 247.9996795654297 -3730.940185546875 L 247.9996795654297 -3770.049072265625 C 257.0744018554688 -3773.57861328125 262.7113342285156 -3780.523193359375 262.7113342285156 -3788.174072265625 C 262.7113342285156 -3795.82470703125 257.0741271972656 -3802.77001953125 247.9996795654297 -3806.29931640625 L 247.9996795654297 -3846.056640625 C 247.9996795654297 -3848.261962890625 249.794189453125 -3850.05615234375 251.9999542236328 -3850.05615234375 L 602.0459594726563 -3850.05615234375 C 601.973876953125 -3849.8466796875 601.9368896484375 -3849.629150390625 601.9368896484375 -3849.408447265625 C 601.9368896484375 -3847.979248046875 603.4898681640625 -3846.816650390625 605.398681640625 -3846.816650390625 C 605.6922607421875 -3846.816650390625 605.9833984375 -3846.843994140625 606.263916015625 -3846.898193359375 L 606.263916015625 -3730.09814453125 C 605.9826049804688 -3730.151611328125 605.6918334960938 -3730.179443359375 605.398681640625 -3730.179443359375 C 603.4898681640625 -3730.179443359375 601.9368896484375 -3729.016845703125 601.9368896484375 -3727.587646484375 C 601.9368896484375 -3727.369140625 601.9733276367188 -3727.151611328125 602.0451049804688 -3726.941162109375 L 602.0455322265625 -3726.93994140625 Z"/>
    </g>
  </g>
</svg>
