<svg xmlns="http://www.w3.org/2000/svg" xmlns:xlink="http://www.w3.org/1999/xlink" width="90" height="90" viewBox="0 0 90 90">
  <defs>
    <style>
      .cls-1 {
        fill: none;
      }

      .cls-2 {
        fill: #e4f8d5;
      }

      .cls-3 {
        clip-path: url(#clip-path);
      }

      .cls-4 {
        fill: #7fd53f;
      }
    </style>
    <clipPath id="clip-path">
      <rect id="矩形_155" data-name="矩形 155" class="cls-1" width="42.131" height="42.985"/>
    </clipPath>
  </defs>
  <g id="开通会员" transform="translate(-23 -903)">
    <circle id="椭圆_19" data-name="椭圆 19" class="cls-2" cx="45" cy="45" r="45" transform="translate(23 903)"/>
    <g id="组_364" data-name="组 364" transform="translate(-1219.708 -1545.402)">
      <g id="组_363" data-name="组 363" transform="translate(1267.12 2472.401)">
        <g id="组_362" data-name="组 362" class="cls-3" transform="translate(0)">
          <path id="路径_199" data-name="路径 199" d="M1316.28,2550.489H1285a1.381,1.381,0,0,1-1.33-1.166l-1.212-6.506a1.516,1.516,0,0,1,.283-1.2,1.327,1.327,0,0,1,1.047-.528h27.062a1.448,1.448,0,0,1,0,2.891h-25.407l.669,3.614h29.007l3.247-21.471-8.557,6.258a1.3,1.3,0,0,1-1.619-.308l-7.715-9.485-8.077,9.918a1.3,1.3,0,0,1-1.637.3l-8.14-6.19,1.673,10.427a1.461,1.461,0,0,1-1.121,1.7,1.388,1.388,0,0,1-1.592-1.2l-2.161-13.338a1.493,1.493,0,0,1,.538-1.439,1.287,1.287,0,0,1,1.451-.093l9.7,7.049,8.366-10.265a1.3,1.3,0,0,1,2.008,0l8.013,9.841,10.013-7.039a1.288,1.288,0,0,1,1.411.12,1.492,1.492,0,0,1,.543,1.393l-3.844,25.49a1.385,1.385,0,0,1-1.348,1.224Zm0,0" transform="translate(-1279.407 -2507.57)"/>
        </g>
      </g>
      <path id="路径_200" data-name="路径 200" class="cls-4" d="M1350.263,2470.217a2.637,2.637,0,1,0,1.632,2.438A2.637,2.637,0,0,0,1350.263,2470.217Z" transform="translate(-61.588 5.768)"/>
      <path id="路径_202" data-name="路径 202" class="cls-4" d="M1264.983,2494.2a2.435,2.435,0,1,0,1.506,2.251A2.436,2.436,0,0,0,1264.983,2494.2Z" transform="translate(3.088 -13.769)"/>
      <path id="路径_212" data-name="路径 212" class="cls-4" d="M1264.983,2494.2a2.435,2.435,0,1,0,1.506,2.251A2.436,2.436,0,0,0,1264.983,2494.2Z" transform="translate(43.735 -13.769)"/>
    </g>
  </g>
</svg>
