<svg xmlns="http://www.w3.org/2000/svg" width="90" height="90" viewBox="0 0 90 90">
  <defs>
    <style>
      .cls-1 {
        fill: #feefcc;
      }

      .cls-2 {
        fill: #ffb300;
      }
    </style>
  </defs>
  <g id="在线时长" transform="translate(-23 -525)">
    <g id="组_359" data-name="组 359">
      <circle id="椭圆_16" data-name="椭圆 16" class="cls-1" cx="45" cy="45" r="45" transform="translate(23 525)"/>
      <g id="组_342" data-name="组 342" transform="translate(-354 -117)">
        <g id="组_337" data-name="组 337" transform="translate(401.333 666)">
          <path id="路径_186" data-name="路径 186" d="M446.567,693.219a1.279,1.279,0,0,1-1.279-1.279v-5.166a18.217,18.217,0,1,0-36.434,0v5.166a1.279,1.279,0,1,1-2.558,0v-5.166a20.775,20.775,0,0,1,41.55,0v5.166A1.279,1.279,0,0,1,446.567,693.219Z" transform="translate(-406.296 -666)"/>
        </g>
        <g id="组_338" data-name="组 338" transform="translate(399 688.662)">
          <path id="路径_187" data-name="路径 187" d="M408.622,756.1a9.611,9.611,0,1,1-.012-19.221h.042a2.284,2.284,0,0,1,2.236,2.29v14.64A2.283,2.283,0,0,1,408.622,756.1Zm-.291-16.658a7.053,7.053,0,0,0,0,14.1Z" transform="translate(-399 -736.881)"/>
        </g>
        <g id="组_339" data-name="组 339" transform="translate(432.993 688.662)">
          <path id="路径_188" data-name="路径 188" d="M507.6,756.1a2.286,2.286,0,0,1-2.279-2.29v-14.64a2.283,2.283,0,0,1,2.235-2.29h.043a9.611,9.611,0,1,1,0,19.221Zm.279-16.658v14.094a7.053,7.053,0,0,0,0-14.094Zm-.287,0h0Z" transform="translate(-505.322 -736.881)"/>
        </g>
        <g id="组_340" data-name="组 340" transform="translate(424.328 694.911)">
          <path id="路径_189" data-name="路径 189" class="cls-2" d="M479.5,764.982a1.279,1.279,0,0,1-1.279-1.279v-6a1.279,1.279,0,1,1,2.558,0v6A1.279,1.279,0,0,1,479.5,764.982Z" transform="translate(-478.22 -756.426)"/>
        </g>
        <g id="组_341" data-name="组 341" transform="translate(417.663 693.661)">
          <path id="路径_190" data-name="路径 190" class="cls-2" d="M458.652,763.406a1.279,1.279,0,0,1-1.279-1.279V753.8a1.279,1.279,0,0,1,2.558,0v8.332A1.279,1.279,0,0,1,458.652,763.406Z" transform="translate(-457.373 -752.517)"/>
        </g>
      </g>
    </g>
  </g>
</svg>
