<svg xmlns="http://www.w3.org/2000/svg" xmlns:xlink="http://www.w3.org/1999/xlink" width="39.488" height="42.268" viewBox="0 0 39.488 42.268">
  <defs>
    <style>
      .cls-1 {
        fill: none;
      }

      .cls-2 {
        clip-path: url(#clip-path);
      }

      .cls-3 {
        fill: #4d4d4d;
      }
    </style>
    <clipPath id="clip-path">
      <rect id="矩形_140" data-name="矩形 140" class="cls-1" width="39.488" height="42.268"/>
    </clipPath>
  </defs>
  <g id="设置" transform="translate(-117 -91)">
    <g id="组_316" data-name="组 316" transform="translate(117 91)">
      <g id="组_315" data-name="组 315" class="cls-2" transform="translate(0 0)">
        <path id="路径_163" data-name="路径 163" class="cls-3" d="M136.746,133.783a21.152,21.152,0,0,1-2.885-.2,3,3,0,0,1-2.46-2.115,7,7,0,0,0-8.229-4.765,3.036,3.036,0,0,1-3.052-1.069,20.941,20.941,0,0,1-2.9-5,3.026,3.026,0,0,1,.594-3.189,7.011,7.011,0,0,0,0-9.509,3.042,3.042,0,0,1-.594-3.2,20.984,20.984,0,0,1,2.9-5,3.044,3.044,0,0,1,3.052-1.069,7.081,7.081,0,0,0,5.037-.771,6.978,6.978,0,0,0,3.189-3.992,3,3,0,0,1,2.46-2.115,20.952,20.952,0,0,1,5.776,0,3,3,0,0,1,2.46,2.115,7.013,7.013,0,0,0,8.231,4.762,3.048,3.048,0,0,1,3.046,1.072,21.013,21.013,0,0,1,2.9,4.995,3.038,3.038,0,0,1-.6,3.194,7.014,7.014,0,0,0,0,9.509,3.045,3.045,0,0,1,.6,3.2,20.925,20.925,0,0,1-2.9,4.995,3.044,3.044,0,0,1-3.046,1.072,7.007,7.007,0,0,0-8.231,4.762,3,3,0,0,1-2.46,2.115,21.636,21.636,0,0,1-2.888.2Zm-12.041-9.25a9.021,9.021,0,0,1,8.611,6.339,1,1,0,0,0,.818.723,19.022,19.022,0,0,0,5.224,0,1,1,0,0,0,.813-.723,9.042,9.042,0,0,1,10.586-6.122,1.052,1.052,0,0,0,1.032-.348,18.825,18.825,0,0,0,2.622-4.52,1,1,0,0,0-.206-1.074,9.011,9.011,0,0,1,0-12.228,1.022,1.022,0,0,0,.214-1.075,19.054,19.054,0,0,0-2.629-4.517,1.024,1.024,0,0,0-1.032-.348,9.03,9.03,0,0,1-10.586-6.127,1,1,0,0,0-.816-.723,19.231,19.231,0,0,0-5.224,0,1.008,1.008,0,0,0-.816.721,9,9,0,0,1-4.105,5.135,9.094,9.094,0,0,1-6.478.993,1.017,1.017,0,0,0-1.032.346,19.007,19.007,0,0,0-2.624,4.519,1.016,1.016,0,0,0,.214,1.077,9.018,9.018,0,0,1,0,12.225,1.022,1.022,0,0,0-.217,1.075,19.112,19.112,0,0,0,2.627,4.52,1.022,1.022,0,0,0,1.032.346,9.208,9.208,0,0,1,1.975-.211Zm0,0" transform="translate(-117.001 -91.566)"/>
      </g>
    </g>
    <path id="路径_164" data-name="路径 164" class="cls-3" d="M352.134,360.939a8.035,8.035,0,1,1,8.036-8.036,8.044,8.044,0,0,1-8.036,8.036Zm0-14.06a6.027,6.027,0,1,0,6.03,6.027,6.032,6.032,0,0,0-6.03-6.027Zm0,0" transform="translate(-215.388 -240.78)"/>
  </g>
</svg>
