<svg id="白银vip" xmlns="http://www.w3.org/2000/svg" xmlns:xlink="http://www.w3.org/1999/xlink" width="23.153" height="21.489" viewBox="0 0 23.153 21.489">
  <defs>
    <style>
      .cls-1 {
        fill: none;
      }

      .cls-2 {
        clip-path: url(#clip-path);
      }

      .cls-3 {
        fill: #e4e9f1;
      }

      .cls-4 {
        fill: #dcdde5;
      }

      .cls-5 {
        fill: #fff;
      }

      .cls-6 {
        fill: #da3329;
      }

      .cls-7 {
        fill: #c11b16;
      }
    </style>
    <clipPath id="clip-path">
      <rect id="矩形_172" data-name="矩形 172" class="cls-1" width="23.153" height="21.489"/>
    </clipPath>
  </defs>
  <g id="组_470" data-name="组 470" transform="translate(0 0)">
    <g id="组_469" data-name="组 469" class="cls-2" transform="translate(0 0)">
      <path id="路径_272" data-name="路径 272" class="cls-3" d="M1581.11,116.679a1.722,1.722,0,0,0-1.234,2.8l-.181.757a3.431,3.431,0,0,1-6.757-.523l-.171-2.141a2.528,2.528,0,1,0-2.785,0l-.171,2.141a3.431,3.431,0,0,1-6.757.523l-.18-.757a1.725,1.725,0,1,0-2.045.5l1.537,10.857h18.012v0l1.537-10.852a1.728,1.728,0,0,0-.8-3.305Zm0,0" transform="translate(-1559.801 -112.863)"/>
    </g>
  </g>
  <path id="路径_273" data-name="路径 273" class="cls-3" d="M1587.886,210.357h-12.672a2.669,2.669,0,0,1-2.67-2.67h18.012a2.671,2.671,0,0,1-2.67,2.67Zm0,0" transform="translate(-1570.026 -188.896)"/>
  <g id="组_472" data-name="组 472" transform="translate(0 0)">
    <g id="组_471" data-name="组 471" class="cls-2" transform="translate(0 0)">
      <path id="路径_274" data-name="路径 274" class="cls-3" d="M1559.835,133.561a1.731,1.731,0,1,0,1.731-1.731,1.731,1.731,0,0,0-1.731,1.731Zm0,0" transform="translate(-1559.828 -128.026)"/>
      <path id="路径_275" data-name="路径 275" class="cls-4" d="M1628.109,116.695a1.723,1.723,0,0,0-1.234,2.8l-.18.757a3.431,3.431,0,0,1-6.757-.523l-.171-2.141a2.531,2.531,0,0,0-.848-4.584,2.583,2.583,0,0,0-.548-.054v17.905h9.006v0L1628.912,120a1.73,1.73,0,0,0-.8-3.307Zm0,0" transform="translate(-1606.799 -112.879)"/>
      <path id="路径_276" data-name="路径 276" class="cls-3" d="M1659.476,133.57a1.729,1.729,0,1,0,1.728-1.729,1.729,1.729,0,0,0-1.728,1.729Zm0,0" transform="translate(-1639.785 -128.036)"/>
      <path id="路径_277" data-name="路径 277" class="cls-3" d="M1605.446,115.133a2.558,2.558,0,1,0,1.279-2.215,2.558,2.558,0,0,0-1.279,2.215Zm0,0" transform="translate(-1596.429 -112.575)"/>
    </g>
  </g>
  <path id="路径_278" data-name="路径 278" class="cls-4" d="M1618.132,207.687v2.67h6.4a2.606,2.606,0,0,0,2.607-2.607v-.063Zm0,0" transform="translate(-1606.608 -188.896)"/>
  <path id="路径_279" data-name="路径 279" class="cls-4" d="M1565.49,119.857a3.782,3.782,0,0,1-2.323,2.541,1.707,1.707,0,0,0,1.073.382,1.728,1.728,0,0,0,1.251-2.923Zm19.687.014a3.861,3.861,0,0,1-2.373,2.49,1.722,1.722,0,0,0,2.373-2.49Zm-9.317-3.633a1.458,1.458,0,0,1,.084.48c0,1.2-1.5,2.181-3.352,2.181a4.917,4.917,0,0,1-.963-.094,2.557,2.557,0,1,0,4.23-2.567Zm0,0" transform="translate(-1562.502 -115.514)"/>
  <path id="路径_280" data-name="路径 280" class="cls-5" d="M1564.144,134.67c.035.061.145.073.287.031a1.04,1.04,0,0,0,.4-.233c.108-.1.151-.2.116-.264s-.144-.073-.287-.031a1.043,1.043,0,0,0-.4.233c-.107.1-.152.2-.117.264Zm0,0" transform="translate(-1563.276 -129.886)"/>
  <path id="路径_281" data-name="路径 281" class="cls-5" d="M1666.343,135.612a.738.738,0,0,0,.4.117c.1-.011.14-.076.1-.17a.878.878,0,0,0-.7-.4c-.1.011-.14.076-.1.171a.737.737,0,0,0,.3.287Zm0,0" transform="translate(-1645.041 -130.692)"/>
  <path id="路径_282" data-name="路径 282" class="cls-5" d="M1613.26,115.432c0,.137.434.248.97.248s.969-.111.969-.248-.434-.248-.969-.248-.97.111-.97.248Zm0,0" transform="translate(-1602.699 -114.669)"/>
  <path id="路径_283" data-name="路径 283" class="cls-6" d="M1614.057,177.2h-1.438a.593.593,0,1,1,0-1.185h1.438a.593.593,0,0,1,0,1.185Zm0,0" transform="translate(-1601.709 -163.484)"/>
  <path id="路径_284" data-name="路径 284" class="cls-7" d="M1619.166,176.006h-.773v1.188h.773a.594.594,0,0,0,0-1.188Zm0,0" transform="translate(-1606.818 -163.474)"/>
</svg>
