<svg xmlns="http://www.w3.org/2000/svg" width="112" height="112" viewBox="0 0 112 112">
  <defs>
    <style>
      .cls-1 {
        fill: #fff2c5;
      }

      .cls-2 {
        fill: #a88100;
      }
    </style>
  </defs>
  <g id="购物优惠" transform="translate(-588 -656)">
    <circle id="椭圆_224" data-name="椭圆 224" class="cls-1" cx="56" cy="56" r="56" transform="translate(588 656)"/>
    <g id="组_440" data-name="组 440" transform="translate(612 690.667)">
      <g id="组_427" data-name="组 427" transform="translate(0 0)">
        <path id="路径_246" data-name="路径 246" class="cls-2" d="M579.34,2920.507H564.086a2.89,2.89,0,0,1-2.887-2.886v-15.255h.828a3.3,3.3,0,0,0,0-6.592H561.2l0-.825v-14.428a2.885,2.885,0,0,1,2.887-2.886H579.34Zm-16.489-16.558v13.671a1.236,1.236,0,0,0,1.235,1.234h13.6v-39.57h-13.6a1.233,1.233,0,0,0-1.235,1.234v13.672a4.949,4.949,0,0,1,0,9.759Z" transform="translate(-561.199 -2877.633)"/>
      </g>
      <g id="组_428" data-name="组 428" transform="translate(21.713 0)">
        <path id="路径_247" data-name="路径 247" class="cls-2" d="M640.622,2920.507H600.633v-42.874h39.988a2.89,2.89,0,0,1,2.887,2.886v.828h-.828a1.232,1.232,0,0,0-1.233,1.235,1.246,1.246,0,0,0,.362.874,1.226,1.226,0,0,0,.873.361h.826v5.775h-.826a1.235,1.235,0,1,0,0,2.47h.826v5.775h-.826a1.235,1.235,0,0,0,0,2.47h.826v5.774h-.826a1.235,1.235,0,1,0,0,2.47h.826v5.774h-.826a1.235,1.235,0,0,0,0,2.471h.828v.827A2.89,2.89,0,0,1,640.622,2920.507Zm-38.337-1.652h38.337a1.238,1.238,0,0,0,1.053-.591,2.906,2.906,0,0,1-1.035-.663,2.888,2.888,0,0,1,1.216-4.808v-2.712a2.885,2.885,0,0,1,0-5.53v-2.713a2.887,2.887,0,0,1,0-5.533v-2.714a2.886,2.886,0,0,1,0-5.531v-2.711a2.872,2.872,0,0,1-1.215-.727,2.9,2.9,0,0,1-.846-2.042,2.868,2.868,0,0,1,.845-2.041,2.9,2.9,0,0,1,1.033-.667,1.238,1.238,0,0,0-1.052-.588H602.285Z" transform="translate(-600.633 -2877.633)"/>
      </g>
      <g id="组_429" data-name="组 429" transform="translate(31.284 9.877)">
        <path id="路径_248" data-name="路径 248" class="cls-2" d="M618.841,2918.7a.826.826,0,0,1-.584-1.41l21.474-21.475a.826.826,0,0,1,1.168,1.168l-21.474,21.474A.824.824,0,0,1,618.841,2918.7Z" transform="translate(-618.014 -2895.572)"/>
      </g>
      <g id="组_430" data-name="组 430" transform="translate(35.405 13.999)">
        <path id="路径_249" data-name="路径 249" class="cls-2" d="M625.5,2903.057" transform="translate(-625.5 -2903.057)"/>
      </g>
      <g id="组_431" data-name="组 431" transform="translate(30.724 9.321)">
        <path id="路径_250" data-name="路径 250" class="cls-2" d="M621.818,2904.2a4.82,4.82,0,1,1,3.408-1.412A4.791,4.791,0,0,1,621.818,2904.2Zm0-7.985a3.165,3.165,0,1,0,2.24.925A3.156,3.156,0,0,0,621.818,2896.213Z" transform="translate(-616.998 -2894.561)"/>
      </g>
      <g id="组_432" data-name="组 432" transform="translate(45.519 24.113)">
        <path id="路径_251" data-name="路径 251" class="cls-2" d="M648.688,2931.065a4.82,4.82,0,1,1,3.408-1.412A4.788,4.788,0,0,1,648.688,2931.065Zm0-7.988a3.169,3.169,0,1,0,2.24.928A3.144,3.144,0,0,0,648.688,2923.078Z" transform="translate(-643.868 -2921.426)"/>
      </g>
    </g>
  </g>
</svg>
